<svg xmlns="http://www.w3.org/2000/svg" viewBox="0 0 120 120" role="img">
  <circle cx="60" cy="60" r="60" fill="#2e9d46"/>
  
  <g fill="none" stroke="#ffffff" stroke-width="4.5" stroke-linecap="round" stroke-linejoin="round">
    <circle cx="44" cy="40" r="10"/>
    <g stroke-width="4">
      <line x1="44" y1="22" x2="44" y2="26"/>
      <line x1="26" y1="40" x2="30" y2="40"/>
      <line x1="31" y1="27" x2="34" y2="30"/>
      <line x1="57" y1="27" x2="54" y2="30"/>
    </g>
    <path d="M84 36c-18 0-30 10-30 26 16 0 30-8 30-26z"/>
    <path d="M58 62c8-8 16-13 24-15"/>
    <path d="M30 78c6 5 12 5 18 0s12-5 18 0 12 5 18 0"/>
  </g>

</svg>